<?xml version="1.0" encoding="utf-8"?>
<!-- Generator: Adobe Illustrator 24.1.1, SVG Export Plug-In . SVG Version: 6.00 Build 0)  -->
<svg version="1.1" id="regular" xmlns="http://www.w3.org/2000/svg" xmlns:xlink="http://www.w3.org/1999/xlink" x="0px" y="0px"
	 viewBox="0 0 512 512" style="enable-background:new 0 0 512 512;" xml:space="preserve">
<style type="text/css">
	.st0{fill:#FFFFFF;}
</style>
<path class="st0" d="M256,512c141.2,0,256-114.8,256-256S397.2,0,256,0S0,114.8,0,256S114.8,512,256,512z M256,32
	c123.5,0,224,100.5,224,224S379.5,480,256,480S32,379.5,32,256S132.5,32,256,32z"/>
<path class="st0" d="M168.4,302l33.5-14.5l-9.4,9.4c-3,3-4.7,7.1-4.7,11.3v62.6c0,14.3,17.3,21.3,27.3,11.3l33.6-33.6l73.2,36.6
	c9.5,4.7,20.9-0.9,22.9-11.5l41.7-229.6c2.2-12.4-10-22.3-21.6-17.8L93.7,232.5c-12.2,4.7-13.8,21.4-2.8,28.4l62.6,39.9
	C158,303.7,163.6,304.1,168.4,302L168.4,302z M349.9,166.6l-32.8,180.4l-64.4-32.2c-6.2-3.1-13.7-1.8-18.5,3l-14.4,14.4v-17.3
	l64.1-64.1c12.4-12.4-1.6-33-17.7-26l-102.8,44.6l-28.9-18.4L349.9,166.6z"/>
</svg>
